# xmcd
#
# Track frame offsets: 
#        150
#        10331
#        24237
#        30924
#        39971
#        48313
#        58954
#        67748
#        76456
#        89569
#        98903
#        112165
#        126349
#        134691
#        143799
#        155015
#        165437
#        174415
#        183044
#        192927
#        206659
#        228375
#        237901
#        247845
#
# Disc length: 3434 seconds
#
# Revision: 2
# Processed by: cddbd v1.5.2PL0 Copyright (c) Steve Scherf et al.
# Submitted via: ExactAudioCopy v0.99pb5
#
DISCID=3e0d6818
DTITLE=Spotnicks - 1962-1966
DYEAR=2001
DGENRE=Instrumental
TTITLE0=Orange blossom special
TTITLE1=Take five
TTITLE2=Happy Henrik's polka
TTITLE3=Galloping guitars
TTITLE4=Spanish gypsy dance
TTITLE5=Western guitar
TTITLE6=The rocket man
TTITLE7=Spotnicks theme
TTITLE8=Johnny Guitar
TTITLE9=Happy guitar
TTITLE10=Last space train
TTITLE11=Telstar
TTITLE12=Amapola
TTITLE13=Ghost riders in the sky
TTITLE14=Space party
TTITLE15=Hang on
TTITLE16=San Antonio rose
TTITLE17=Space ship rendezvous
TTITLE18=Cape Kennedy
TTITLE19=Pense a moi
TTITLE20=Husky
TTITLE21=Happy silence
TTITLE22=In the mood
TTITLE23=Space walk
EXTD=
EXTT0=
EXTT1=
EXTT2=
EXTT3=
EXTT4=
EXTT5=
EXTT6=
EXTT7=
EXTT8=
EXTT9=
EXTT10=
EXTT11=
EXTT12=
EXTT13=
EXTT14=
EXTT15=
EXTT16=
EXTT17=
EXTT18=
EXTT19=
EXTT20=
EXTT21=
EXTT22=
EXTT23=
PLAYORDER=
